<?xml version="1.0" encoding="UTF-8" standalone="no"?>
<svg
   xmlns:dc="http://purl.org/dc/elements/1.1/"
   xmlns:cc="http://creativecommons.org/ns#"
   xmlns:rdf="http://www.w3.org/1999/02/22-rdf-syntax-ns#"
   xmlns:svg="http://www.w3.org/2000/svg"
   xmlns="http://www.w3.org/2000/svg"
   id="svg2"
   width="300"
   version="1.1"
   height="200">
  <metadata
     id="metadata48">
    <rdf:RDF>
      <cc:Work
         rdf:about="">
        <dc:format>image/svg+xml</dc:format>
        <dc:type
           rdf:resource="http://purl.org/dc/dcmitype/StillImage" />
        <dc:title></dc:title>
      </cc:Work>
    </rdf:RDF>
  </metadata>
  <defs
     id="defs4" />
  <g
     id="g6"
     transform="matrix(1, 0, 0, 1, 135.25, 146)">
    <path
       id="path8"
       stroke-width="1"
       stroke-opacity="1"
       stroke="#000000"
       fill="none"
       d="M 10.7 0.05 Q 8 0.05 6.55 1.4 Q 7.7 0.8 9.25 0.25 L 11.55 0.05 L 10.7 0.05 M 11.55 0.05 L 11.55 0.05 M 6.55 1.4 Q 3.6 2.6 2.35 3.85 Q 0.05 6 0.05 9.85 Q 0.05 14.35 3.5 17.3 Q 6.75 20.1 11.45 20.1 L 12.15 20.1 Q 17.35 19.95 20.6 17.2 Q 24.15 14.2 24.15 9.2 Q 24.15 4.5 19.45 2.05 Q 16 0.25 11.55 0.05 M 12.15 20.1 L 12.3 23.1 L 12.35 23.65 Q 14.45 24 15.9 25.4 Q 18.3 27.55 18.6 27.85 Q 20.3 29.05 24.95 29.6 M 12.35 23.65 L 12.45 26.25 Q 12.45 27.2 11.85 35.65 Q 9.55 38.3 6.85 42.05 Q 5.05 44.7 1.55 49.95 M 0.4 32.45 Q 0.5 32.35 2.8 29.15 Q 4.05 27.35 5.6 26.6 Q 9.65 23.8 12.3 23.1 M 13.5 36.3 Q 14.55 38.2 17.25 42.5 Q 19.55 46.4 21 49.1 " />
  </g>
  <g
     id="g10"
     transform="matrix(1, 0, 0, 1, 3.25, 8.5)">
    <text
       id="text4176"
       y="42.360836"
       x="27.100586"
       style="font-style:italic;font-weight:bold;font-stretch:normal;font-size:24px;line-height:120.00000477%;font-family:'Ubuntu Light';text-align:center;text-decoration:none;text-decoration-line:none;letter-spacing:0px;word-spacing:0px;fill:#000000;fill-opacity:1;stroke:none;stroke-width:1px;stroke-linecap:butt;stroke-linejoin:miter;stroke-opacity:1"
       xml:space="preserve"><tspan
         id="tspan4178"
         y="42.360836"
         x="27.100586"><tspan
           id="tspan4180"
           y="42.360836"
           x="27.100586">Let's go </tspan></tspan><tspan
         id="tspan4182"
         y="71.160835"
         x="25.342773"><tspan
           id="tspan4184"
           x="25.342773">outside!</tspan></tspan></text>
    <path
       id="path16"
       stroke-width="1"
       stroke-opacity="1"
       stroke="#000000"
       fill="none"
       d="M 112.8 92.1 Q 105.4 93.2 96.45 96.2 Q 92.15 97.5 87 97.5 Q 81.8 97.5 75.1 96.85 Q 68.45 96.25 59.65 95.65 Q 50.9 95.05 39.4 95.2 Q 27.95 95.2 20.6 90.85 Q 13.2 86.5 8.95 79.75 Q 4.75 73.05 2.8 66 Q 0.85 58.9 0.35 53.55 Q -0.25 48.25 1.4 41.5 Q 3.05 34.75 6.5 27.75 Q 10 20.75 14.9 14.7 Q 19.85 8.65 25.85 4.7 Q 32.25 0.95 45.65 0.4 Q 59 -0.15 74.3 1.2 Q 89.65 2.6 101.8 4.55 Q 114 6.5 118 7.8 Q 125.45 10.3 131.8 18.85 Q 138.15 27.35 139.95 39.15 Q 140.95 50.95 137.75 61.25 Q 134.55 71.55 133.15 77.2 Q 132.7 80.05 132.35 85.35 Q 132 90.6 131.7 96.2 Q 131.45 101.85 131.3 105.75 Q 131.15 109.7 131.15 109.85 L 123 95.7 Q 120.2 91 112.8 92.1 M 123 95.7 L 123 95.7 " />
    <path
       id="path18"
       stroke-width="1"
       stroke-opacity="1"
       stroke="#000000"
       fill="none"
       d="M 127.3 101.1 L 125.4 96.5 L 121.8 92.6 Q 121.9 92.25 118.8 90.9 Q 115.65 89.55 107.85 91.85 Q 100.2 94.4 98.15 94.7 Q 96.1 94.95 96.35 94.8 L 92.25 94.15 Q 91.85 94.25 88.6 94.7 Q 85.3 95.15 84 95.3 Q 83.45 95.35 81.55 95.35 Q 79.7 95.3 77.4 95.25 Q 75.15 95.2 73.5 95.1 Q 71.8 95.05 71.75 95.05 Q 71.75 95 69.4 94.35 Q 67.05 93.75 62.25 93.65 Q 59.75 93.65 55 93.75 Q 50.3 93.8 45.05 93.85 Q 39.75 93.85 35.55 93.7 Q 31.3 93.5 29.7 93 Q 23.6 91.2 19.1 87.6 Q 16.65 85.55 13.3 82.75 Q 9.9 79.95 9.05 78.35 Q 8.75 77.55 7.65 74.85 Q 6.6 72.15 5.35 68.45 Q 4.15 64.8 3.25 61 Q 2.4 57.2 2.45 54.25 Q 2.6 51.25 3.25 47.05 Q 3.9 42.9 4.85 38.65 Q 5.8 34.4 6.75 31.2 Q 7.7 28 8.45 27.05 Q 9.25 26.1 11.45 23.5 Q 13.65 20.9 16.25 17.8 Q 18.85 14.65 20.9 12.15 Q 23 9.7 23.55 8.95 Q 24.55 7.15 31.7 4 Q 38.8 0.8 52.6 1.8 Q 66.15 3.35 74.05 4.35 Q 81.9 5.4 86.85 4.9 Q 92.4 4.3 101.15 5.65 Q 109.9 6.95 117.35 10.3 Q 124.15 13.35 127 15.45 Q 129.85 17.55 131.7 21.65 Q 134.1 26.25 136.7 31.8 Q 139.3 37.35 138.9 40.95 Q 138.3 44.15 138.35 45.9 L 138.45 49.25 Q 138.65 52.2 138 54.25 Q 137.55 55.8 137.15 58.25 Q 136.75 60.7 136.5 61.4 Q 136.1 62.35 134.6 67.05 Q 133.1 71.75 132.45 73.75 Q 132.25 74.55 132 76.9 Q 131.7 79.3 131.5 82.15 Q 131.25 85.05 131.1 87.35 Q 130.95 89.65 130.95 90.3 Q 130.95 91 130.9 93.45 Q 130.8 95.85 130.7 98.85 Q 130.6 101.8 130.55 104.05 Q 130.5 106.3 130.55 106.65 L 127.3 101.1 M 130.55 106.65 L 130.55 106.65 " />
    <path
       id="path20"
       stroke-width="1"
       stroke-opacity="1"
       stroke="#000000"
       fill="none"
       d="M 129.65 103.05 Q 129.3 102.7 128.45 100.85 Q 128.15 99.85 127.25 97.95 Q 126.4 96.05 126.3 95.85 L 124.6 93.8 L 119.9 89.9 Q 119.55 89.8 116.05 89.15 Q 112.5 88.55 109.7 89.15 Q 106.9 90.05 102.3 91.4 Q 97.75 92.75 95.85 92.9 Q 94.3 92.95 90.85 93.35 Q 87.4 93.75 82.9 93.9 Q 77.95 93.9 70.85 93.2 Q 63.75 92.55 60.65 92.45 Q 57.9 92.5 52 92.7 Q 46.15 92.95 39.1 92.45 Q 32.55 91.8 28.95 90.4 Q 25.3 89 21.3 87.2 Q 19.15 86.3 16.6 83.65 Q 14.05 81 11.65 77.55 Q 9.25 74.1 7.5 70.85 Q 5.8 67.55 5.3 65.35 Q 4.85 63.15 4.65 59.45 Q 4.5 55.75 4.5 51.7 Q 4.55 47.6 4.8 44.2 Q 5.05 40.8 5.5 39.15 Q 6 37.5 7.1 34.15 Q 8.2 30.8 9.7 27 Q 11.15 23.2 12.85 20.15 Q 14.5 17.05 16.1 16 Q 18.95 13.85 21.7 10.8 Q 24.45 7.75 30.45 6.75 Q 36.35 5.85 39.35 4.55 Q 42.35 3.2 46.8 2.9 Q 52 2.65 59.9 2.4 Q 67.8 2.1 73.35 2.65 Q 76 2.95 81 3.5 Q 85.95 4.1 91.5 4.85 Q 97.05 5.6 101.4 6.4 Q 105.8 7.15 107.25 7.9 Q 110.3 9.4 115.6 11.35 Q 120.9 13.25 123.2 15.25 Q 125.15 17.05 127.2 18.65 Q 129.25 20.3 130.45 23.1 Q 131.85 26.1 134.25 31.3 Q 136.65 36.45 136.95 41.9 Q 137.05 46.9 136.95 49.3 Q 136.9 51.7 136.45 54.65 Q 135.85 57.95 134.9 61.4 Q 133.9 64.8 133.3 66.7 Q 132.6 68.6 131.7 71.45 Q 130.75 74.35 130.75 76.25 Q 130.8 78.1 130.6 80.35 Q 130.4 82.55 130.35 83.55 Q 130.35 84.85 130.2 89.2 Q 130.1 93.5 130.05 96.1 Q 130.05 98.45 130 100.7 Q 129.95 102.95 129.9 103.15 " />
  </g>
  <g
     id="g22"
     transform="matrix(1, 0, 0, 1, 149.95, 3.5)">
    <text
       id="text4186"
       y="40.627155"
       x="46.251953"
       style="font-style:italic;font-weight:300;font-stretch:normal;font-size:14px;line-height:120.00000477%;font-family:Ubuntu;text-align:center;text-decoration:none;text-decoration-line:none;letter-spacing:0px;word-spacing:0px;fill:#000000;fill-opacity:1;stroke:none;stroke-width:1px;stroke-linecap:butt;stroke-linejoin:miter;stroke-opacity:1"
       xml:space="preserve"><tspan
         id="tspan4188"
         y="40.627155"
         x="46.251953"><tspan
           id="tspan4190"
           y="40.627155"
           x="46.251953">But I rather </tspan></tspan><tspan
         id="tspan4192"
         y="57.427155"
         x="45.746094"><tspan
           id="tspan4194"
           x="45.746094">wait until it </tspan></tspan><tspan
         id="tspan4196"
         y="74.227158"
         x="39.675781"><tspan
           id="tspan4198"
           x="39.675781">stops raining?</tspan></tspan></text>
    <path
       id="path28"
       stroke-width="1"
       stroke-opacity="1"
       stroke="#000000"
       fill="none"
       d="M 43.95 9 Q 56.75 2.65 70.45 1.1 Q 77.25 0.4 86.4 1.4 Q 95.5 2.4 105 4.8 Q 114.45 7.15 122.25 10.7 Q 130.05 14.2 134.2 18.6 Q 142.3 26.95 145.35 37 Q 148.4 47.1 144.8 64.5 Q 142.7 73.4 135.15 79.5 Q 127.6 85.6 117.5 89.3 Q 107.4 93.05 97.65 94.8 Q 87.9 96.6 81.45 96.9 Q 74.9 97.3 64.45 96.2 Q 54.05 95.1 43.1 91.6 Q 32.15 88.15 24.1 81.45 Q 16.05 74.8 14.3 64.05 Q 14.2 64 13.85 60.55 Q 13.5 57.1 14 51.3 Q 14.5 45.5 16.95 38.3 Q 19.35 31.15 24.8 23.55 Q 31.15 15.35 43.95 9 M 24.8 23.55 L 24.8 23.55 " />
    <path
       id="path30"
       stroke-width="1"
       stroke-opacity="1"
       stroke="#000000"
       fill="none"
       d="M 35.45 15.4 Q 38.1 13.6 42.65 11.65 Q 45.05 10.65 49.75 9.1 Q 54.5 7.5 60.4 5.95 Q 66.35 4.45 72.35 3.6 Q 78.35 2.8 83.2 3.35 Q 88.05 3.9 93.85 4.8 Q 99.65 5.65 105.45 6.75 Q 111.2 7.85 116 9.15 Q 120.75 10.45 123.55 11.85 Q 129.15 14.8 133.5 18.8 Q 137.9 22.8 139.5 27.4 Q 141.25 32.05 143.45 38.65 Q 145.65 45.25 145 52.6 Q 144.2 59.95 142.65 65.9 Q 141.1 71.9 137 75.55 Q 134.75 77.45 128.3 81.55 Q 121.8 85.65 112.55 90.05 Q 103.25 94.4 92.7 97.15 Q 82.1 99.95 71.7 99.15 Q 61.3 98.3 51.45 96.15 Q 41.6 94 33.6 89.8 Q 25.55 85.6 20.65 78.6 Q 15.75 71.55 15.25 60.9 Q 14.95 50.25 17 42.55 Q 19 34.85 22.15 29.75 Q 25.25 24.6 28.25 21.6 Q 31.2 18.6 32.75 17.25 Q 32.8 17.15 35.45 15.4 M 32.75 17.25 L 32.75 17.25 " />
    <path
       id="path32"
       stroke-width="1"
       stroke-opacity="1"
       stroke="#000000"
       fill="none"
       d="M 38.3 14.2 Q 40.95 12.35 45.5 10.3 Q 47.85 9.25 52.6 7.6 Q 57.3 5.9 63.25 4.3 Q 69.2 2.7 75.2 1.85 Q 81.15 0.95 86.05 1.55 Q 90.9 2.15 96.7 3.05 Q 102.5 4 108.3 5.15 Q 114.05 6.3 118.8 7.65 Q 123.6 9 126.4 10.5 Q 132 13.55 136.35 17.75 Q 140.75 22 142.35 26.8 Q 144.05 31.7 146.25 38.6 Q 148.45 45.55 147.8 53.25 Q 147.05 60.95 145.5 67.25 Q 143.95 73.55 139.85 77.35 Q 137.6 79.35 131.1 83.7 Q 124.6 88 115.35 92.6 Q 106.1 97.15 95.5 100.05 Q 84.95 102.95 74.55 102.15 Q 64.15 101.25 54.3 99 Q 44.45 96.75 36.4 92.35 Q 28.4 87.95 23.5 80.55 Q 18.55 73.2 18.05 62 Q 17.75 50.8 19.8 42.7 Q 21.85 34.65 24.95 29.25 Q 28.1 23.85 31.05 20.7 Q 34.05 17.55 35.6 16.2 Q 35.65 16.05 38.3 14.2 M 35.6 16.2 L 35.6 16.2 " />
    <path
       id="path34"
       stroke-width="1"
       stroke-opacity="1"
       stroke="#000000"
       fill="none"
       d="M 19.85 39.45 Q 20.4 37.75 24.45 31.2 Q 26.65 27.8 30.8 24.1 Q 34.95 20.4 40.15 17 Q 45.35 13.55 50.7 10.95 Q 56.05 8.4 60.75 7.15 Q 70.2 4.65 83.25 4.7 Q 96.3 4.75 109.25 9.15 Q 122.3 13.85 132.2 23.05 Q 142.15 32.3 143.4 44.7 Q 144.4 57.15 137.65 68.1 Q 130.9 79.05 113.85 86.8 Q 105.05 90.6 93.5 92.75 Q 81.95 94.9 69.75 94.8 Q 57.5 94.7 46.6 91.8 Q 35.7 88.95 28.15 82.75 Q 20.9 76.45 18.05 70.2 Q 15.15 64 15.2 58.35 Q 15.2 52.7 16.65 48.2 Q 18.1 43.7 19.5 40.9 Q 19.25 41.15 19.85 39.45 M 19.5 40.9 L 19.5 40.9 " />
    <path
       id="path36"
       stroke-width="1"
       stroke-opacity="1"
       stroke="#000000"
       fill="none"
       d="M 16.35 92.55 Q 18.75 91.75 22.25 91.6 Q 25.75 91.45 29.15 93.45 Q 32.5 95.4 34.55 100.95 Q 37.9 112 33.45 115.5 Q 28.95 119 22.15 118.05 Q 18.85 117.65 15.7 115.2 Q 12.5 112.75 10.6 109.1 Q 8.7 105.4 9.2 101.3 Q 9.75 97.25 13.8 93.55 Q 13.9 93.4 16.35 92.55 M 13.8 93.55 L 13.8 93.55 " />
    <path
       id="path38"
       stroke-width="1"
       stroke-opacity="1"
       stroke="#000000"
       fill="none"
       d="M 5.45 123 Q 8.4 122 11.1 124.8 Q 13.45 127.9 12.95 130 Q 12.5 132.05 10.75 133.35 Q 8.15 135.4 5.2 134.8 Q 2.25 134.15 0.85 130.8 Q -0.1 127.75 0.95 126.05 Q 2 124.35 2.25 124.35 Q 2.5 124 5.45 123 M 2.25 124.35 L 2.25 124.35 " />
    <path
       id="path40"
       stroke-width="1"
       stroke-opacity="1"
       stroke="#000000"
       fill="none"
       d="M 6.85 122.3 Q 9.85 121.25 12.5 125.7 Q 14.3 129.4 14.05 131.2 Q 13.8 133 12.15 134.25 Q 9.55 136.3 6.6 135.7 Q 3.7 135.05 2.25 131.7 Q 1.35 128.55 2.35 126.3 Q 3.4 124 3.65 123.9 Q 3.9 123.4 6.85 122.3 M 3.65 123.9 L 3.65 123.9 " />
    <path
       id="path42"
       stroke-width="1"
       stroke-opacity="1"
       stroke="#000000"
       fill="none"
       d="M 13.4 97.5 Q 14.75 96.05 17 94.45 Q 19.25 92.9 22.05 92.3 Q 24.85 91.7 27.85 93.3 Q 33.55 96.85 34.4 101.3 Q 35.3 105.8 34.6 109.2 Q 33.9 112.65 30.15 115.25 Q 26.4 117.8 22.65 117 Q 20.85 116.45 18.55 114.8 Q 16.25 113.15 14.3 110.65 Q 12.35 108.15 11.55 105.15 Q 10.8 102.2 12.05 99 Q 12.1 98.9 13.4 97.5 M 12.05 99 L 12.05 99 " />
    <path
       id="path44"
       stroke-width="1"
       stroke-opacity="1"
       stroke="#000000"
       fill="none"
       d="M 11.95 99.75 Q 12.35 98.15 13.25 96.1 Q 14.2 94 15.75 92.4 Q 17.35 90.85 19.7 90.75 Q 22.25 90.7 25.95 91.55 Q 29.65 92.4 32.8 94.6 Q 35.9 96.85 36.7 101 Q 37.5 105.15 34.25 111.75 Q 31.5 116.65 27.5 116.95 Q 23.55 117.2 19.7 114.55 Q 15.8 111.95 13.45 108.2 Q 11.05 104.5 11.6 101.4 Q 11.55 101.3 11.95 99.75 M 11.6 101.4 L 11.6 101.4 " />
  </g>
</svg>
