<?xml version="1.0" encoding="UTF-8" standalone="no"?>
<svg
   xmlns:dc="http://purl.org/dc/elements/1.1/"
   xmlns:cc="http://creativecommons.org/ns#"
   xmlns:rdf="http://www.w3.org/1999/02/22-rdf-syntax-ns#"
   xmlns:svg="http://www.w3.org/2000/svg"
   xmlns="http://www.w3.org/2000/svg"
   xmlns:sodipodi="http://sodipodi.sourceforge.net/DTD/sodipodi-0.dtd"
   xmlns:inkscape="http://www.inkscape.org/namespaces/inkscape"
   id="svg2"
   width="300"
   version="1.1"
   height="200"
   inkscape:version="0.91 r13725"
   sodipodi:docname="Example1_plain.svg">
  <sodipodi:namedview
     pagecolor="#ffffff"
     bordercolor="#666666"
     borderopacity="1"
     objecttolerance="10"
     gridtolerance="10"
     guidetolerance="10"
     inkscape:pageopacity="0"
     inkscape:pageshadow="2"
     inkscape:window-width="467"
     inkscape:window-height="406"
     id="namedview29"
     showgrid="false"
     inkscape:zoom="0.97333333"
     inkscape:cx="150"
     inkscape:cy="100"
     inkscape:window-x="0"
     inkscape:window-y="23"
     inkscape:window-maximized="0"
     inkscape:current-layer="svg2" />
  <metadata
     id="metadata48">
    <rdf:RDF>
      <cc:Work
         rdf:about="">
        <dc:format>image/svg+xml</dc:format>
        <dc:type
           rdf:resource="http://purl.org/dc/dcmitype/StillImage" />
      </cc:Work>
    </rdf:RDF>
  </metadata>
  <defs
     id="defs4" />
  <path
     style="fill:none;stroke:#000000;stroke-width:1;stroke-opacity:1"
     inkscape:connector-curvature="0"
     d="m 145.95,146.05 q -2.7,0 -4.15,1.35 1.15,-0.6 2.7,-1.15 l 2.3,-0.2 -0.85,0 m 0.85,0 0,0 m -5,1.35 q -2.95,1.2 -4.2,2.45 -2.3,2.15 -2.3,6 0,4.5 3.45,7.45 3.25,2.8 7.95,2.8 l 0.7,0 q 5.2,-0.15 8.45,-2.9 3.55,-3 3.55,-8 0,-4.7 -4.7,-7.15 -3.45,-1.8 -7.9,-2 m 0.6,20.05 0.15,3 0.05,0.55 q 2.1,0.35 3.55,1.75 2.4,2.15 2.7,2.45 1.7,1.2 6.35,1.75 m -12.6,-5.95 0.1,2.6 q 0,0.95 -0.6,9.4 -2.3,2.65 -5,6.4 -1.8,2.65 -5.3,7.9 m -1.15,-17.5 q 0.1,-0.1 2.4,-3.3 1.25,-1.8 2.8,-2.55 4.05,-2.8 6.7,-3.5 m 1.2,13.2 q 1.05,1.9 3.75,6.2 2.3,3.9 3.75,6.6"
     id="path8" />
  <path
     style="fill:none;stroke:#000000;stroke-width:1;stroke-opacity:1"
     inkscape:connector-curvature="0"
     d="m 116.05,100.6 q -7.4,1.1 -16.35,4.1 -4.3,1.3 -9.45,1.3 -5.2,0 -11.9,-0.65 -6.65,-0.6 -15.45,-1.2 -8.75,-0.6 -20.25,-0.45 -11.45,0 -18.8,-4.35 Q 16.45,95 12.2,88.25 8,81.55 6.05,74.5 4.1,67.4 3.6,62.05 3,56.75 4.65,50 6.3,43.25 9.75,36.25 q 3.5,-7 8.4,-13.05 4.95,-6.05 10.95,-10 6.4,-3.75 19.8,-4.3 13.35,-0.55 28.65,0.8 15.35,1.4 27.5,3.35 12.2,1.95 16.2,3.25 7.45,2.5 13.8,11.05 6.35,8.5 8.15,20.3 1,11.8 -2.2,22.1 -3.2,10.3 -4.6,15.95 -0.45,2.85 -0.8,8.15 -0.35,5.25 -0.65,10.85 -0.25,5.65 -0.4,9.55 -0.15,3.95 -0.15,4.1 l -8.15,-14.15 q -2.8,-4.7 -10.2,-3.6 m 10.2,3.6 0,0"
     id="path12" />
  <path
     style="fill:none;stroke:#000000;stroke-width:1;stroke-opacity:1"
     inkscape:connector-curvature="0"
     d="m 130.55,109.6 -1.9,-4.6 -3.6,-3.9 q 0.1,-0.35 -3,-1.7 -3.15,-1.35 -10.95,0.95 -7.65,2.55 -9.7,2.85 -2.05,0.25 -1.8,0.1 l -4.1,-0.65 q -0.4,0.1 -3.65,0.55 -3.3,0.45 -4.6,0.6 -0.55,0.05 -2.45,0.05 -1.85,-0.05 -4.15,-0.1 -2.25,-0.05 -3.9,-0.15 -1.7,-0.05 -1.75,-0.05 0,-0.05 -2.35,-0.7 -2.35,-0.6 -7.15,-0.7 -2.5,0 -7.25,0.1 -4.7,0.05 -9.95,0.1 -5.3,0 -9.5,-0.15 -4.25,-0.2 -5.85,-0.7 -6.1,-1.8 -10.6,-5.4 -2.45,-2.05 -5.8,-4.85 -3.4,-2.8 -4.25,-4.4 Q 12,86.05 10.9,83.35 9.85,80.65 8.6,76.95 7.4,73.3 6.5,69.5 5.65,65.7 5.7,62.75 q 0.15,-3 0.8,-7.2 0.65,-4.15 1.6,-8.4 0.95,-4.25 1.9,-7.45 0.95,-3.2 1.7,-4.15 0.8,-0.95 3,-3.55 2.2,-2.6 4.8,-5.7 2.6,-3.15 4.65,-5.65 2.1,-2.45 2.65,-3.2 1,-1.8 8.15,-4.95 7.1,-3.2 20.9,-2.2 13.55,1.55 21.45,2.55 7.85,1.05 12.8,0.55 5.55,-0.6 14.3,0.75 8.75,1.3 16.2,4.65 6.8,3.05 9.65,5.15 2.85,2.1 4.7,6.2 2.4,4.6 5,10.15 2.6,5.55 2.2,9.15 -0.6,3.2 -0.55,4.95 l 0.1,3.35 q 0.2,2.95 -0.45,5 -0.45,1.55 -0.85,4 -0.4,2.45 -0.65,3.15 -0.4,0.95 -1.9,5.65 -1.5,4.7 -2.15,6.7 -0.2,0.8 -0.45,3.15 -0.3,2.4 -0.5,5.25 -0.25,2.9 -0.4,5.2 -0.15,2.3 -0.15,2.95 0,0.7 -0.05,3.15 -0.1,2.4 -0.2,5.4 -0.1,2.95 -0.15,5.2 -0.05,2.25 0,2.6 l -3.25,-5.55 m 3.25,5.55 0,0"
     id="path14" />
  <path
     style="fill:none;stroke:#000000;stroke-width:1;stroke-opacity:1"
     inkscape:connector-curvature="0"
     d="m 132.9,111.55 q -0.35,-0.35 -1.2,-2.2 -0.3,-1 -1.2,-2.9 -0.85,-1.9 -0.95,-2.1 l -1.7,-2.05 -4.7,-3.9 q -0.35,-0.1 -3.85,-0.75 -3.55,-0.6 -6.35,0 -2.8,0.9 -7.4,2.25 -4.55,1.35 -6.45,1.5 -1.55,0.05 -5,0.45 -3.45,0.4 -7.95,0.55 -4.95,0 -12.05,-0.7 -7.1,-0.65 -10.2,-0.75 -2.75,0.05 -8.65,0.25 -5.85,0.25 -12.9,-0.25 Q 35.8,100.3 32.2,98.9 28.55,97.5 24.55,95.7 22.4,94.8 19.85,92.15 17.3,89.5 14.9,86.05 12.5,82.6 10.75,79.35 9.05,76.05 8.55,73.85 8.1,71.65 7.9,67.95 7.75,64.25 7.75,60.2 q 0.05,-4.1 0.3,-7.5 0.25,-3.4 0.7,-5.05 0.5,-1.65 1.6,-5 1.1,-3.35 2.6,-7.15 1.45,-3.8 3.15,-6.85 1.65,-3.1 3.25,-4.15 2.85,-2.15 5.6,-5.2 2.75,-3.05 8.75,-4.05 5.9,-0.9 8.9,-2.2 3,-1.35 7.45,-1.65 5.2,-0.25 13.1,-0.5 7.9,-0.3 13.45,0.25 2.65,0.3 7.65,0.85 4.95,0.6 10.5,1.35 5.55,0.75 9.9,1.55 4.4,0.75 5.85,1.5 3.05,1.5 8.35,3.45 5.3,1.9 7.6,3.9 1.95,1.8 4,3.4 2.05,1.65 3.25,4.45 1.4,3 3.8,8.2 2.4,5.15 2.7,10.6 0.1,5 0,7.4 -0.05,2.4 -0.5,5.35 -0.6,3.3 -1.55,6.75 -1,3.4 -1.6,5.3 -0.7,1.9 -1.6,4.75 -0.95,2.9 -0.95,4.8 0.05,1.85 -0.15,4.1 -0.2,2.2 -0.25,3.2 0,1.3 -0.15,5.65 -0.1,4.3 -0.15,6.9 0,2.35 -0.05,4.6 -0.05,2.25 -0.1,2.45"
     id="path16" />
  <text
     xml:space="preserve"
     style="font-style:italic;font-weight:bold;font-stretch:normal;font-size:24px;line-height:120.00000477%;font-family:'Ubuntu Light';text-align:center;text-decoration:none;text-decoration-line:none;letter-spacing:0px;word-spacing:0px;fill:#000000;fill-opacity:1;stroke:none;stroke-width:1px;stroke-linecap:butt;stroke-linejoin:miter;stroke-opacity:1"
     x="30.350586"
     y="50.860836"
     id="text66"
     sodipodi:linespacing="120%"><tspan
       sodipodi:role="line"
       x="30.350586"
       y="50.860836"
       id="tspan68"><tspan
         x="30.350586"
         y="50.860836"
         id="tspan70">Let's go </tspan></tspan><tspan
       sodipodi:role="line"
       x="28.592773"
       y="79.660835"
       id="tspan72"><tspan
         x="28.592773"
         y="79.660835"
         id="tspan74">outside!</tspan></tspan></text>
  <path
     style="fill:none;stroke:#000000;stroke-width:1;stroke-opacity:1"
     inkscape:connector-curvature="0"
     d="m 193.9,12.5 q 12.8,-6.35 26.5,-7.9 6.8,-0.7 15.95,0.3 9.1,1 18.6,3.4 9.45,2.35 17.25,5.9 7.8,3.5 11.95,7.9 8.1,8.35 11.15,18.4 3.05,10.1 -0.55,27.5 -2.1,8.9 -9.65,15 -7.55,6.1 -17.65,9.8 -10.1,3.75 -19.85,5.5 -9.75,1.8 -16.2,2.1 -6.55,0.4 -17,-0.7 -10.4,-1.1 -21.35,-4.6 -10.95,-3.45 -19,-10.15 -8.05,-6.65 -9.8,-17.4 -0.1,-0.05 -0.45,-3.5 -0.35,-3.45 0.15,-9.25 0.5,-5.8 2.95,-13 2.4,-7.15 7.85,-14.75 6.35,-8.2 19.15,-14.55 m -19.15,14.55 0,0"
     id="path24" />
  <path
     style="fill:none;stroke:#000000;stroke-width:1;stroke-opacity:1"
     inkscape:connector-curvature="0"
     d="m 185.4,18.9 q 2.65,-1.8 7.2,-3.75 2.4,-1 7.1,-2.55 4.75,-1.6 10.65,-3.15 5.95,-1.5 11.95,-2.35 6,-0.8 10.85,-0.25 4.85,0.55 10.65,1.45 5.8,0.85 11.6,1.95 5.75,1.1 10.55,2.4 4.75,1.3 7.55,2.7 5.6,2.95 9.95,6.95 4.4,4 6,8.6 1.75,4.65 3.95,11.25 2.2,6.6 1.55,13.95 -0.8,7.35 -2.35,13.3 -1.55,6 -5.65,9.65 -2.25,1.9 -8.7,6 -6.5,4.1 -15.75,8.5 -9.3,4.35 -19.85,7.1 -10.6,2.8 -21,2 -10.4,-0.85 -20.25,-3 -9.85,-2.15 -17.85,-6.35 -8.05,-4.2 -12.95,-11.2 -4.9,-7.05 -5.4,-17.7 -0.3,-10.65 1.75,-18.35 2,-7.7 5.15,-12.8 3.1,-5.15 6.1,-8.15 2.95,-3 4.5,-4.35 0.05,-0.1 2.7,-1.85 m -2.7,1.85 0,0"
     id="path26" />
  <path
     style="fill:none;stroke:#000000;stroke-width:1;stroke-opacity:1"
     inkscape:connector-curvature="0"
     d="m 188.25,17.7 q 2.65,-1.85 7.2,-3.9 2.35,-1.05 7.1,-2.7 4.7,-1.7 10.65,-3.3 5.95,-1.6 11.95,-2.45 5.95,-0.9 10.85,-0.3 4.85,0.6 10.65,1.5 5.8,0.95 11.6,2.1 5.75,1.15 10.5,2.5 4.8,1.35 7.6,2.85 5.6,3.05 9.95,7.25 4.4,4.25 6,9.05 1.7,4.9 3.9,11.8 2.2,6.95 1.55,14.65 -0.75,7.7 -2.3,14 -1.55,6.3 -5.65,10.1 -2.25,2 -8.75,6.35 -6.5,4.3 -15.75,8.9 -9.25,4.55 -19.85,7.45 -10.55,2.9 -20.95,2.1 -10.4,-0.9 -20.25,-3.15 -9.85,-2.25 -17.9,-6.65 -8,-4.4 -12.9,-11.8 Q 168.5,76.7 168,65.5 q -0.3,-11.2 1.75,-19.3 2.05,-8.05 5.15,-13.45 3.15,-5.4 6.1,-8.55 3,-3.15 4.55,-4.5 0.05,-0.15 2.7,-2 m -2.7,2 0,0"
     id="path28" />
  <path
     style="fill:none;stroke:#000000;stroke-width:1;stroke-opacity:1"
     inkscape:connector-curvature="0"
     d="m 169.8,42.95 q 0.55,-1.7 4.6,-8.25 2.2,-3.4 6.35,-7.1 4.15,-3.7 9.35,-7.1 5.2,-3.45 10.55,-6.05 5.35,-2.55 10.05,-3.8 9.45,-2.5 22.5,-2.45 13.05,0.05 26,4.45 13.05,4.7 22.95,13.9 9.95,9.25 11.2,21.65 1,12.45 -5.75,23.4 -6.75,10.95 -23.8,18.7 -8.8,3.8 -20.35,5.95 -11.55,2.15 -23.75,2.05 -12.25,-0.1 -23.15,-3 -10.9,-2.85 -18.45,-9.05 -7.25,-6.3 -10.1,-12.55 -2.9,-6.2 -2.85,-11.85 0,-5.65 1.45,-10.15 1.45,-4.5 2.85,-7.3 -0.25,0.25 0.35,-1.45 m -0.35,1.45 0,0"
     id="path30" />
  <path
     style="fill:none;stroke:#000000;stroke-width:1;stroke-opacity:1"
     inkscape:connector-curvature="0"
     d="m 166.3,96.05 q 2.4,-0.8 5.9,-0.95 3.5,-0.15 6.9,1.85 3.35,1.95 5.4,7.5 3.35,11.05 -1.1,14.55 -4.5,3.5 -11.3,2.55 -3.3,-0.4 -6.45,-2.85 -3.2,-2.45 -5.1,-6.1 -1.9,-3.7 -1.4,-7.8 0.55,-4.05 4.6,-7.75 0.1,-0.15 2.55,-1 m -2.55,1 0,0"
     id="path32" />
  <path
     style="fill:none;stroke:#000000;stroke-width:1;stroke-opacity:1"
     inkscape:connector-curvature="0"
     d="m 155.4,126.5 q 2.95,-1 5.65,1.8 2.35,3.1 1.85,5.2 -0.45,2.05 -2.2,3.35 -2.6,2.05 -5.55,1.45 -2.95,-0.65 -4.35,-4 -0.95,-3.05 0.1,-4.75 1.05,-1.7 1.3,-1.7 0.25,-0.35 3.2,-1.35 m -3.2,1.35 0,0"
     id="path34" />
  <path
     style="fill:none;stroke:#000000;stroke-width:1;stroke-opacity:1"
     inkscape:connector-curvature="0"
     d="m 156.8,125.8 q 3,-1.05 5.65,3.4 1.8,3.7 1.55,5.5 -0.25,1.8 -1.9,3.05 -2.6,2.05 -5.55,1.45 -2.9,-0.65 -4.35,-4 -0.9,-3.15 0.1,-5.4 1.05,-2.3 1.3,-2.4 0.25,-0.5 3.2,-1.6 m -3.2,1.6 0,0"
     id="path36" />
  <path
     style="fill:none;stroke:#000000;stroke-width:1;stroke-opacity:1"
     inkscape:connector-curvature="0"
     d="m 163.35,101 q 1.35,-1.45 3.6,-3.05 2.25,-1.55 5.05,-2.15 2.8,-0.6 5.8,1 5.7,3.55 6.55,8 0.9,4.5 0.2,7.9 -0.7,3.45 -4.45,6.05 -3.75,2.55 -7.5,1.75 -1.8,-0.55 -4.1,-2.2 -2.3,-1.65 -4.25,-4.15 -1.95,-2.5 -2.75,-5.5 -0.75,-2.95 0.5,-6.15 0.05,-0.1 1.35,-1.5 m -1.35,1.5 0,0"
     id="path38" />
  <path
     style="fill:none;stroke:#000000;stroke-width:1;stroke-opacity:1"
     inkscape:connector-curvature="0"
     d="m 161.9,103.25 q 0.4,-1.6 1.3,-3.65 0.95,-2.1 2.5,-3.7 1.6,-1.55 3.95,-1.65 2.55,-0.05 6.25,0.8 3.7,0.85 6.85,3.05 3.1,2.25 3.9,6.4 0.8,4.15 -2.45,10.75 -2.75,4.9 -6.75,5.2 -3.95,0.25 -7.8,-2.4 -3.9,-2.6 -6.25,-6.35 -2.4,-3.7 -1.85,-6.8 -0.05,-0.1 0.35,-1.65 m -0.35,1.65 0,0"
     id="path40" />
  <text
     xml:space="preserve"
     style="font-style:italic;font-weight:300;font-stretch:normal;font-size:14px;line-height:120.00000477%;font-family:Ubuntu;text-align:center;text-decoration:none;text-decoration-line:none;letter-spacing:0px;word-spacing:0px;fill:#000000;fill-opacity:1;stroke:none;stroke-width:1px;stroke-linecap:butt;stroke-linejoin:miter;stroke-opacity:1"
     x="196.20195"
     y="44.127155"
     id="text52"
     sodipodi:linespacing="120%"><tspan
       sodipodi:role="line"
       x="196.20195"
       y="44.127155"
       id="tspan54"><tspan
         x="196.20195"
         y="44.127155"
         id="tspan56">But I rather </tspan></tspan><tspan
       sodipodi:role="line"
       x="195.69609"
       y="60.927158"
       id="tspan58"><tspan
         x="195.69609"
         y="60.927158"
         id="tspan60">wait until it </tspan></tspan><tspan
       sodipodi:role="line"
       x="189.62578"
       y="77.727158"
       id="tspan62"><tspan
         x="189.62578"
         y="77.727158"
         id="tspan64">stops raining?</tspan></tspan></text>
</svg>
